<?xml version="1.0" encoding="UTF-8" standalone="no"?>
<svg
   xmlns:dc="http://purl.org/dc/elements/1.1/"
   xmlns:cc="http://creativecommons.org/ns#"
   xmlns:rdf="http://www.w3.org/1999/02/22-rdf-syntax-ns#"
   xmlns:svg="http://www.w3.org/2000/svg"
   xmlns="http://www.w3.org/2000/svg"
   xmlns:sodipodi="http://sodipodi.sourceforge.net/DTD/sodipodi-0.dtd"
   xmlns:inkscape="http://www.inkscape.org/namespaces/inkscape"
   viewBox="0 0 252 61"
   version="1.1"
   id="svg3845"
   sodipodi:docname="main-logo.svg"
   inkscape:version="0.92.3 (2405546, 2018-03-11)"
   width="252"
   height="61">
  <metadata
     id="metadata3851">
    <rdf:RDF>
      <cc:Work
         rdf:about="">
        <dc:format>image/svg+xml</dc:format>
        <dc:type
           rdf:resource="http://purl.org/dc/dcmitype/StillImage" />
        <dc:title></dc:title>
      </cc:Work>
    </rdf:RDF>
  </metadata>
  <defs
     id="defs3849" />
  <sodipodi:namedview
     pagecolor="#ffffff"
     bordercolor="#666666"
     borderopacity="1"
     objecttolerance="10"
     gridtolerance="10"
     guidetolerance="10"
     inkscape:pageopacity="0"
     inkscape:pageshadow="2"
     inkscape:window-width="1853"
     inkscape:window-height="1136"
     id="namedview3847"
     showgrid="false"
     inkscape:zoom="3.2539683"
     inkscape:cx="142.73933"
     inkscape:cy="0.9021785"
     inkscape:window-x="67"
     inkscape:window-y="152"
     inkscape:window-maximized="1"
     inkscape:current-layer="svg3845"
     inkscape:pagecheckerboard="true" />
  <g
     id="g1023"
     transform="matrix(0.99318106,0,0,0.99318106,-0.06240398,-10.377286)">
    <path
       inkscape:connector-curvature="0"
       id="path4534-7"
       style="fill:#ffffff;fill-opacity:1;fill-rule:nonzero;stroke:none;stroke-width:0.66008657"
       d="m 50.416427,45.891218 v -9.633963 c 3.299772,-0.646883 5.789615,-3.553909 5.789615,-7.043126 0,-3.963817 -3.21396,-7.177119 -7.177778,-7.177119 -1.969697,0 -3.754571,0.793424 -5.05098,2.078614 l -9.046488,-5.635819 c 0.03301,-0.280538 0.05017,-0.565038 0.05017,-0.854157 0,-3.96382 -3.2133,-7.177114 -7.177121,-7.177114 -3.96382,0 -7.177124,3.213294 -7.177124,7.177114 0,3.963823 3.213304,7.177126 7.177124,7.177126 2.66675,0 4.994214,-1.454833 6.231214,-3.613975 l 8.383762,5.223262 c -0.365029,0.860756 -0.567674,1.807978 -0.567674,2.802068 0,3.489217 2.489845,6.396243 5.788957,7.043126 v 9.633963 c -3.299112,0.646224 -5.788957,3.553904 -5.788957,7.043119 0,3.963825 3.213961,7.176463 7.177118,7.176463 3.963818,0 7.177781,-3.212638 7.177781,-7.176463 0,-3.489215 -2.489848,-6.396895 -5.789616,-7.043119" />
    <path
       inkscape:connector-curvature="0"
       id="path4538-2"
       style="fill:#ffffff;fill-opacity:1;fill-rule:nonzero;stroke:none;stroke-width:0.66008657"
       d="m 34.980749,41.074304 c 0,-3.963819 -3.213302,-7.17712 -7.177123,-7.17712 -3.963158,0 -7.177119,3.213301 -7.177119,7.17712 0,3.488559 2.489846,6.392941 5.788959,7.039827 v 9.53363 c -1.769033,0.346542 -3.305051,1.343272 -4.349309,2.730778 l -8.067581,-5.025901 c 0.270636,-0.7558 0.417837,-1.569685 0.417837,-2.418557 0,-3.488558 -2.489188,-6.396238 -5.7889563,-7.043126 v -9.63396 c 3.2997683,-0.646225 5.7889563,-3.553908 5.7889563,-7.042464 0,-3.964482 -3.212642,-7.177119 -7.1764618,-7.177119 -3.9644798,0 -7.17711877,3.212637 -7.17711877,7.177119 0,3.488556 2.48918637,6.396239 5.78895457,7.042464 v 9.63396 c -3.2997682,0.646888 -5.78895457,3.554568 -5.78895457,7.043126 0,3.96382 3.21263897,7.177121 7.17711877,7.177121 2.1182194,0 4.0225668,-0.917519 5.3361368,-2.377634 l 8.278148,5.157263 c -0.148514,0.57493 -0.227729,1.178253 -0.227729,1.79939 0,3.963823 3.213961,7.177124 7.177119,7.177124 3.963821,0 7.177123,-3.213301 7.177123,-7.177124 0,-3.488555 -2.489186,-6.39624 -5.788959,-7.04246 v -9.53363 c 3.299113,-0.646886 5.788959,-3.551268 5.788959,-7.039827" />
    <path
       inkscape:connector-curvature="0"
       id="path4542"
       style="fill:#ffffff;fill-opacity:1;fill-rule:nonzero;stroke:none;stroke-width:0.66008657"
       d="m 183.74164,22.52515 c 0.47854,0 0.90171,0.111563 1.27862,0.334004 0.37358,0.223107 0.66797,0.507604 0.88118,0.862073 l -0.75052,0.578235 c -0.3538,-0.537309 -0.81918,-0.811248 -1.39872,-0.811248 -0.28253,0 -0.52807,0.07062 -0.71817,0.213208 -0.19341,0.141242 -0.29575,0.344564 -0.29575,0.60794 0,0.233015 0.0726,0.404632 0.21392,0.527408 0.14114,0.121459 0.38346,0.273939 0.72079,0.425756 l 0.74721,0.344565 c 0.53796,0.244237 0.94395,0.52741 1.20864,0.821152 0.26268,0.2944 0.39403,0.658766 0.39403,1.094422 0,0.578237 -0.2132,1.045578 -0.63893,1.399381 -0.42578,0.35513 -0.96374,0.527412 -1.61194,0.527412 -0.54787,0 -1.04296,-0.130702 -1.47859,-0.384833 -0.43567,-0.254132 -0.78024,-0.607941 -1.03567,-1.065379 l 0.76038,-0.576918 c 0.49838,0.709595 1.08454,1.064059 1.76577,1.064059 0.34455,0 0.62709,-0.08053 0.83962,-0.252808 0.21254,-0.173595 0.32411,-0.396052 0.32411,-0.679896 0,-0.232343 -0.0688,-0.415849 -0.22245,-0.547205 -0.15133,-0.132675 -0.40398,-0.283835 -0.76042,-0.445558 l -0.74062,-0.34589 c -0.49509,-0.232346 -0.88122,-0.476579 -1.15384,-0.770321 -0.27459,-0.293079 -0.40594,-0.658762 -0.40594,-1.09442 0,-0.537312 0.20264,-0.97297 0.6086,-1.307636 0.40395,-0.335319 0.90233,-0.507603 1.49905,-0.507603 z" />
    <path
       inkscape:connector-curvature="0"
       id="path4544"
       style="fill:#ffffff;fill-opacity:1;fill-rule:nonzero;stroke:none;stroke-width:0.66008657"
       d="m 190.44983,29.347936 h -1.07461 v -6.691962 h 1.07461 z" />
    <path
       inkscape:connector-curvature="0"
       id="path4548"
       style="fill:#ffffff;fill-opacity:1;fill-rule:nonzero;stroke:none;stroke-width:0.66008657"
       d="m 196.23499,28.396025 c 0.37625,0 0.67197,-0.09173 0.87198,-0.273935 0.20331,-0.182846 0.30431,-0.436977 0.30431,-0.750519 0,-0.314203 -0.1011,-0.568331 -0.30431,-0.76042 -0.20001,-0.192747 -0.48516,-0.284497 -0.86143,-0.284497 h -0.91485 v 2.079271 h 0.91485 z m -0.9043,-4.79619 v 1.804019 h 0.37689 c 0.3373,0 0.59013,-0.0799 0.77296,-0.242253 0.18088,-0.162389 0.27197,-0.384831 0.27197,-0.658767 0,-0.273934 -0.091,-0.497704 -0.27197,-0.660086 -0.18283,-0.162371 -0.43566,-0.242913 -0.77296,-0.242913 z m 1.91951,2.099075 c 0.3941,0.13135 0.70892,0.343907 0.9314,0.637644 0.22309,0.29506 0.33467,0.648867 0.33467,1.064723 0,0.568334 -0.20067,1.034352 -0.59671,1.399378 -0.39675,0.36569 -0.92416,0.547217 -1.573,0.547217 h -2.06079 v -6.691298 h 1.53599 c 0.59673,0 1.0852,0.161711 1.44824,0.497704 0.36437,0.334004 0.54724,0.760418 0.54724,1.286508 0,0.517509 -0.19278,0.933362 -0.56704,1.2469 z" />
    <path
       inkscape:connector-curvature="0"
       id="path4552"
       style="fill:#ffffff;fill-opacity:1;fill-rule:nonzero;stroke:none;stroke-width:0.66008657"
       d="m 205.73143,23.609735 h -2.50767 v 1.714248 h 2.50767 v 0.93204 h -2.50767 v 2.118876 h 2.50767 v 0.963071 h -3.5823 v -6.691298 h 3.5823 z" />
    <path
       inkscape:connector-curvature="0"
       id="path4556"
       style="fill:#ffffff;fill-opacity:1;fill-rule:nonzero;stroke:none;stroke-width:0.66008657"
       d="m 210.89217,25.80043 h 1.34792 c 0.37559,0 0.66864,-0.10166 0.88119,-0.304303 0.21324,-0.203303 0.31487,-0.46734 0.31487,-0.791441 0,-0.334664 -0.10192,-0.598038 -0.31487,-0.800025 -0.21255,-0.203307 -0.5056,-0.3043 -0.88119,-0.3043 h -1.34792 z m 3.13343,3.537402 -1.90763,-2.585557 h -1.2258 v 2.585557 h -1.07462 v -6.691297 h 2.44169 c 0.68187,0 1.22906,0.193406 1.64292,0.568332 0.41522,0.374935 0.62842,0.871979 0.62842,1.479917 0,0.435658 -0.11178,0.820489 -0.33398,1.156475 -0.22313,0.333999 -0.53802,0.576914 -0.94397,0.729394 l 2.00866,2.757179 z" />
    <path
       inkscape:connector-curvature="0"
       id="path4558"
       style="fill:#ffffff;fill-opacity:1;fill-rule:nonzero;stroke:none;stroke-width:0.66008657"
       d="m 219.23227,29.338037 h -1.07529 v -6.691965 h 1.07529 z" />
    <path
       inkscape:connector-curvature="0"
       id="path4562"
       style="fill:#ffffff;fill-opacity:1;fill-rule:nonzero;stroke:none;stroke-width:0.66008657"
       d="m 224.91713,24.522501 -1.11355,2.777649 h 2.21854 z m 1.50105,3.699783 h -3.01134 l -0.47592,1.11555 h -1.14657 l 2.94993,-6.802853 h 0.36634 l 2.94927,6.802853 h -1.15644 z" />
    <path
       inkscape:connector-curvature="0"
       id="path4566"
       style="fill:#ffffff;fill-opacity:1;fill-rule:nonzero;stroke:none;stroke-width:0.66008657"
       d="m 235.8498,22.646341 v 6.803514 h -0.36701 l -4.0734,-4.633808 v 4.522249 h -1.07461 v -6.803508 h 0.37359 l 4.06678,4.623907 v -4.512354 z" />
    <path
       inkscape:connector-curvature="0"
       id="path4570"
       style="fill:#ffffff;fill-opacity:1;fill-rule:nonzero;stroke:none;stroke-width:0.66008657"
       d="m 186.05516,38.825918 h -3.2245 v 1.997423 h 2.65485 v 0.972969 h -2.65485 v 2.75784 h -1.0753 v -6.691298 h 4.2998 z" />
    <path
       inkscape:connector-curvature="0"
       id="path4574"
       style="fill:#ffffff;fill-opacity:1;fill-rule:nonzero;stroke:none;stroke-width:0.66008657"
       d="m 192.89776,38.825918 h -2.4476 v 1.713584 h 2.4476 v 0.932704 h -2.4476 v 2.118878 h 2.4476 v 0.963066 h -3.52222 v -6.691298 h 3.52222 z" />
    <path
       inkscape:connector-curvature="0"
       id="path4578"
       style="fill:#ffffff;fill-opacity:1;fill-rule:nonzero;stroke:none;stroke-width:0.66008657"
       d="m 197.4758,38.835883 v 4.755265 h 1.0126 c 0.78022,0 1.39936,-0.22311 1.85549,-0.669327 0.45547,-0.445559 0.69112,-1.023794 0.69112,-1.723487 0,-0.719494 -0.22311,-1.297731 -0.68184,-1.723485 -0.45549,-0.426417 -1.07466,-0.638966 -1.85424,-0.638966 z m 1.0324,-0.973627 c 1.10698,0 1.98884,0.304961 2.64762,0.922805 0.65875,0.619158 0.99343,1.420502 0.99343,2.413273 0,0.983529 -0.33468,1.784215 -1.00268,2.413274 -0.67132,0.628406 -1.5532,0.942607 -2.64764,0.942607 h -2.09838 v -6.691959 h 2.09838 z" />
    <path
       inkscape:connector-curvature="0"
       id="path4582"
       style="fill:#ffffff;fill-opacity:1;fill-rule:nonzero;stroke:none;stroke-width:0.66008657"
       d="m 208.77721,38.825918 h -2.49181 v 1.713584 h 2.49181 v 0.932704 h -2.49181 v 2.118878 h 2.49181 v 0.963066 h -3.56645 v -6.691298 h 3.56645 z" />
    <path
       inkscape:connector-curvature="0"
       id="path4586"
       style="fill:#ffffff;fill-opacity:1;fill-rule:nonzero;stroke:none;stroke-width:0.66008657"
       d="m 213.31017,41.016284 h 1.34723 c 0.37625,0 0.66867,-0.101661 0.88125,-0.3043 0.2132,-0.203308 0.31488,-0.466681 0.31488,-0.791444 0,-0.334664 -0.10182,-0.598039 -0.31488,-0.800024 -0.21258,-0.203307 -0.505,-0.304302 -0.88125,-0.304302 h -1.34723 z m 3.13276,3.538062 -1.90696,-2.585556 h -1.2258 v 2.585556 h -1.07525 V 37.86239 h 2.44163 c 0.68188,0 1.22909,0.193406 1.64294,0.568333 0.41523,0.37493 0.62844,0.871976 0.62844,1.479918 0,0.435656 -0.11078,0.821145 -0.33403,1.15647 -0.2231,0.334001 -0.53796,0.576918 -0.94392,0.729399 l 2.00864,2.757836 z" />
    <path
       inkscape:connector-curvature="0"
       id="path4590"
       style="fill:#ffffff;fill-opacity:1;fill-rule:nonzero;stroke:none;stroke-width:0.66008657"
       d="m 222.21491,39.738353 -1.11423,2.777644 h 2.21924 z m 1.50035,3.699787 h -3.01128 l -0.47526,1.116206 h -1.14658 l 2.94992,-6.803515 h 0.3657 l 2.94995,6.803515 h -1.15648 z" />
    <path
       inkscape:connector-curvature="0"
       id="path4594"
       style="fill:#ffffff;fill-opacity:1;fill-rule:nonzero;stroke:none;stroke-width:0.66008657"
       d="m 228.76808,43.590886 h 3.06147 v 0.963063 h -4.13608 v -6.691298 h 1.07461 z" />
    <path
       inkscape:connector-curvature="0"
       id="path4598"
       style="fill:#ffffff;fill-opacity:1;fill-rule:nonzero;stroke:none;stroke-width:0.66008657"
       d="m 187.14975,57.123978 c -0.0112,0.871314 -0.25546,1.561105 -0.75974,2.068053 -0.50826,0.507603 -1.16704,0.760418 -1.96971,0.760418 -0.81981,0 -1.47859,-0.252815 -1.98619,-0.760418 -0.50761,-0.506948 -0.76046,-1.196739 -0.76046,-2.068053 v -3.984943 h 1.07533 v 4.055571 c 0,0.568331 0.16049,1.003992 0.47523,1.307633 0.31422,0.304299 0.72082,0.456777 1.21855,0.456777 0.48579,0 0.8812,-0.152475 1.19607,-0.456777 0.31487,-0.303641 0.46601,-0.739302 0.46601,-1.307633 v -4.055571 h 1.07461 z" />
    <path
       inkscape:connector-curvature="0"
       id="path4602"
       style="fill:#ffffff;fill-opacity:1;fill-rule:nonzero;stroke:none;stroke-width:0.66008657"
       d="m 196.4006,53.199834 v 6.802849 h -0.36634 l -4.07408,-4.633148 v 4.522255 h -1.07459 v -6.803515 h 0.3736 l 4.06677,4.623907 v -4.512348 z" />
    <path
       inkscape:connector-curvature="0"
       id="path4604"
       style="fill:#ffffff;fill-opacity:1;fill-rule:nonzero;stroke:none;stroke-width:0.66008657"
       d="m 201.25874,59.891456 h -1.0746 v -6.691955 h 1.0746 z" />
    <path
       inkscape:connector-curvature="0"
       id="path4608"
       style="fill:#ffffff;fill-opacity:1;fill-rule:nonzero;stroke:none;stroke-width:0.66008657"
       d="m 210.53899,53.14412 -2.94992,6.802848 h -0.36634 l -2.94925,-6.802848 h 1.20597 l 1.92677,4.652946 1.9268,-4.652946 z" />
    <path
       inkscape:connector-curvature="0"
       id="path4612"
       style="fill:#ffffff;fill-opacity:1;fill-rule:nonzero;stroke:none;stroke-width:0.66008657"
       d="m 217.05989,54.163229 h -2.52219 v 1.713584 h 2.52219 v 0.932703 h -2.52219 v 2.118876 h 2.52219 v 0.963064 h -3.59677 v -6.691297 h 3.59677 z" />
    <path
       inkscape:connector-curvature="0"
       id="path4616"
       style="fill:#ffffff;fill-opacity:1;fill-rule:nonzero;stroke:none;stroke-width:0.66008657"
       d="m 221.78301,56.353662 h 1.34722 c 0.37627,0 0.66869,-0.101674 0.88189,-0.304304 0.21255,-0.203309 0.31422,-0.466685 0.31422,-0.791444 0,-0.334668 -0.1018,-0.598038 -0.31422,-0.800026 -0.2132,-0.203303 -0.50562,-0.304297 -0.88189,-0.304297 h -1.34722 z m 3.13279,3.538058 -1.90701,-2.585558 h -1.22578 v 2.585558 h -1.07463 v -6.691956 h 2.44167 c 0.68124,0 1.22842,0.193406 1.64229,0.568333 0.41519,0.374927 0.62908,0.871975 0.62908,1.479913 0,0.43566 -0.11178,0.820493 -0.33468,1.156472 -0.22312,0.334006 -0.53797,0.576921 -0.94392,0.729399 l 2.00864,2.757839 z" />
    <path
       inkscape:connector-curvature="0"
       id="path4620"
       style="fill:#ffffff;fill-opacity:1;fill-rule:nonzero;stroke:none;stroke-width:0.66008657"
       d="m 230.82637,53.016462 c 0.47791,0 0.90101,0.110893 1.27793,0.334001 0.37359,0.22311 0.66797,0.507611 0.8812,0.862076 l -0.74988,0.578235 c -0.35441,-0.537313 -0.8198,-0.811246 -1.39934,-0.811246 -0.28252,0 -0.52741,0.07061 -0.7182,0.213205 -0.19338,0.141257 -0.29505,0.343903 -0.29505,0.607946 0,0.233002 0.072,0.405286 0.21321,0.527403 0.14116,0.121471 0.38417,0.273935 0.72084,0.425758 l 0.74719,0.344563 c 0.53799,0.244232 0.94395,0.527407 1.20864,0.821151 0.2627,0.294395 0.39405,0.658761 0.39405,1.094418 0,0.578238 -0.21253,1.044919 -0.63896,1.399387 -0.42574,0.355122 -0.96373,0.527407 -1.61192,0.527407 -0.54721,0 -1.04294,-0.130702 -1.47861,-0.384829 -0.43564,-0.254133 -0.78021,-0.607941 -1.0357,-1.06538 l 0.76111,-0.576912 c 0.4977,0.70959 1.08388,1.064057 1.76506,1.064057 0.34457,0 0.62707,-0.08054 0.84028,-0.252819 0.21255,-0.173596 0.32415,-0.396707 0.32415,-0.679882 0,-0.233015 -0.0694,-0.415857 -0.22313,-0.547209 -0.15054,-0.132675 -0.40331,-0.283843 -0.76044,-0.44556 l -0.73993,-0.345889 c -0.49573,-0.233012 -0.88189,-0.476583 -1.15451,-0.770321 -0.27458,-0.293077 -0.40593,-0.658768 -0.40593,-1.094423 0,-0.537311 0.20263,-0.972965 0.60924,-1.307633 0.40399,-0.335984 0.90169,-0.507603 1.49841,-0.507603 z" />
    <path
       inkscape:connector-curvature="0"
       id="path4622"
       style="fill:#ffffff;fill-opacity:1;fill-rule:nonzero;stroke:none;stroke-width:0.66008657"
       d="m 237.25723,59.891456 h -1.07527 v -6.691955 h 1.07527 z" />
    <path
       inkscape:connector-curvature="0"
       id="path4626"
       style="fill:#ffffff;fill-opacity:1;fill-rule:nonzero;stroke:none;stroke-width:0.66008657"
       d="m 244.17571,54.163229 h -1.45749 v 5.728227 h -1.07463 v -5.728227 h -1.44692 v -0.96307 h 3.97904 z" />
    <path
       inkscape:connector-curvature="0"
       id="path4630"
       style="fill:#ffffff;fill-opacity:1;fill-rule:nonzero;stroke:none;stroke-width:0.66008657"
       d="m 249.43121,57.184576 v 2.707014 h -1.07464 V 57.194476 L 246.0456,53.19963 h 1.19675 l 1.65155,2.910323 1.66142,-2.910323 h 1.18686 z" />
    <path
       inkscape:connector-curvature="0"
       id="path4632-0"
       style="fill:#ffffff;fill-opacity:1;fill-rule:nonzero;stroke:none;stroke-width:0.66008657"
       d="m 169.3383,60.003015 h -1.08518 v -37.51008 h 1.08518 z" />
    <path
       inkscape:connector-curvature="0"
       id="path4636-2"
       style="fill:#ffffff;fill-opacity:1;fill-rule:nonzero;stroke:none;stroke-width:0.66008657"
       d="m 72.899951,22.528712 c 0.619156,0 1.176272,0.141242 1.683876,0.414535 0.507607,0.275257 0.90168,0.648865 1.196078,1.125448 l -0.809266,0.598699 c -0.497706,-0.770321 -1.176935,-1.15515 -2.038347,-1.15515 -0.691109,0 -1.268024,0.23235 -1.724146,0.699689 -0.458099,0.465361 -0.69045,1.053499 -0.69045,1.76309 0,0.710254 0.232351,1.297734 0.69045,1.764412 0.456122,0.467341 1.033037,0.699695 1.724146,0.699695 0.861412,0 1.540641,-0.384833 2.038347,-1.155155 l 0.809266,0.598039 c -0.283835,0.476585 -0.678569,0.851512 -1.186174,1.125452 -0.507604,0.273275 -1.064721,0.414531 -1.683223,0.414531 -0.98419,0 -1.813258,-0.334006 -2.494464,-0.992767 -0.678567,-0.65877 -1.013233,-1.481236 -1.013233,-2.464107 0,-0.973624 0.344565,-1.794117 1.025775,-2.462781 0.677908,-0.66999 1.508294,-1.004655 2.493806,-1.004655 z" />
    <path
       inkscape:connector-curvature="0"
       id="path4640-1"
       style="fill:#ffffff;fill-opacity:1;fill-rule:nonzero;stroke:none;stroke-width:0.66008657"
       d="m 86.048823,22.49775 v 6.803517 h -1.07462 v -4.603446 l -4.168449,4.714998 h -0.374267 v -6.803513 h 1.075279 v 4.592884 l 4.175045,-4.70444 z" />
    <path
       inkscape:connector-curvature="0"
       id="path4644-9"
       style="fill:#ffffff;fill-opacity:1;fill-rule:nonzero;stroke:none;stroke-width:0.66008657"
       d="m 92.683237,26.269751 v 2.077291 h 0.836331 c 0.376248,0 0.668668,-0.08977 0.871971,-0.273275 0.20331,-0.181526 0.304301,-0.435659 0.304301,-0.75052 0,-0.312881 -0.101014,-0.567012 -0.304301,-0.76042 -0.203303,-0.191423 -0.485163,-0.283175 -0.86207,-0.283175 z m 2.562456,-2.697115 h -2.551895 v 1.784213 h 0.92742 c 0.658769,0 1.186176,0.182186 1.582229,0.547874 0.394071,0.365028 0.59738,0.841611 0.59738,1.42975 0,0.576914 -0.190765,1.053498 -0.587479,1.419182 -0.396709,0.365031 -0.923459,0.547214 -1.582227,0.547214 h -2.002702 v -6.691296 h 3.629157 z" />
    <path
       inkscape:connector-curvature="0"
       id="path4648-1"
       style="fill:#ffffff;fill-opacity:1;fill-rule:nonzero;stroke:none;stroke-width:0.66008657"
       d="m 106.30912,22.492935 v 6.802851 h -1.07463 v -4.602782 l -4.16779,4.714338 h -0.37426 v -6.802855 h 1.07462 v 4.592222 l 4.17571,-4.703774 z" />
    <path
       inkscape:connector-curvature="0"
       id="path4652-8"
       style="fill:#ffffff;fill-opacity:1;fill-rule:nonzero;stroke:none;stroke-width:0.66008657"
       d="m 112.28594,23.512374 v 2.200068 h 0.77099 c 0.37623,0 0.66865,-0.101012 0.8713,-0.304303 0.20332,-0.203303 0.30497,-0.466678 0.30497,-0.800683 0,-0.334665 -0.1017,-0.598697 -0.30497,-0.801347 -0.20265,-0.201985 -0.49507,-0.303637 -0.8713,-0.303637 z m 0.79013,-0.963067 c 0.6812,0 1.22906,0.192744 1.64427,0.568335 0.41387,0.374928 0.62774,0.871973 0.62774,1.479912 0,0.607282 -0.21387,1.104328 -0.62774,1.490477 -0.41521,0.38483 -0.96307,0.576916 -1.64427,0.576916 h -0.79013 v 2.585559 h -1.07462 v -6.691297 h 1.86475 z" />
    <path
       inkscape:connector-curvature="0"
       id="path4656-7"
       style="fill:#ffffff;fill-opacity:1;fill-rule:nonzero;stroke:none;stroke-width:0.66008657"
       d="m 122.56566,22.528712 c 0.6185,0 1.1763,0.141242 1.6839,0.414535 0.50758,0.275257 0.90167,0.648865 1.19606,1.125448 l -0.80926,0.598699 c -0.49836,-0.770321 -1.17695,-1.15515 -2.03835,-1.15515 -0.6911,0 -1.268,0.23235 -1.72413,0.699689 -0.45812,0.465361 -0.69046,1.053499 -0.69046,1.76309 0,0.710254 0.23234,1.297734 0.69046,1.764412 0.45613,0.467341 1.03303,0.699695 1.72413,0.699695 0.8614,0 1.53999,-0.384833 2.03835,-1.155155 l 0.80926,0.598039 c -0.2845,0.476585 -0.67856,0.851512 -1.18618,1.125452 -0.50759,0.273275 -1.06537,0.414531 -1.68386,0.414531 -0.98353,0 -1.81261,-0.334006 -2.4945,-0.992767 -0.67854,-0.65877 -1.01255,-1.481236 -1.01255,-2.464107 0,-0.973624 0.34457,-1.794117 1.0251,-2.462781 0.67856,-0.66999 1.50833,-1.004655 2.49381,-1.004655 z" />
    <path
       inkscape:connector-curvature="0"
       id="path4660-6"
       style="fill:#ffffff;fill-opacity:1;fill-rule:nonzero;stroke:none;stroke-width:0.66008657"
       d="m 145.47148,22.49775 v 6.803517 h -1.07527 v -4.603446 l -4.1678,4.714998 h -0.37426 v -6.803513 h 1.07528 v 4.592884 l 4.17505,-4.70444 z" />
    <path
       inkscape:connector-curvature="0"
       id="path4664-5"
       style="fill:#ffffff;fill-opacity:1;fill-rule:nonzero;stroke:none;stroke-width:0.66008657"
       d="m 152.64281,21.848955 c -0.47855,0 -0.87397,-0.151827 -1.17629,-0.465362 -0.30496,-0.31486 -0.45878,-0.710913 -0.45878,-1.186175 h 0.86208 c 0,0.25215 0.0719,0.455461 0.21322,0.607282 0.14391,0.15247 0.33402,0.223105 0.56963,0.223105 0.23238,0 0.42577,-0.07062 0.56704,-0.223105 0.14115,-0.151828 0.21322,-0.355132 0.21322,-0.607282 h 0.86208 c 0,0.475262 -0.15394,0.871315 -0.45614,1.186175 -0.30431,0.313539 -0.70102,0.465362 -1.17628,0.465362 z m 2.92019,0.648866 v 6.803509 h -1.07529 v -4.603438 l -4.16843,4.714333 h -0.37359 v -6.80285 h 1.07528 v 4.59288 l 4.17504,-4.704434 z" />
    <path
       inkscape:connector-curvature="0"
       id="path4668-4"
       style="fill:#ffffff;fill-opacity:1;fill-rule:nonzero;stroke:none;stroke-width:0.66008657"
       d="m 73.610961,42.986574 c 0.638962,0 1.14657,-0.162372 1.520843,-0.486485 0.373607,-0.324763 0.567011,-0.771643 0.567011,-1.348557 0,-0.588137 -0.180863,-1.04558 -0.557776,-1.369678 -0.373606,-0.324765 -0.881874,-0.486486 -1.520176,-0.486486 v 3.701109 z m -3.143329,-1.825143 c 0,0.578239 0.193399,1.023794 0.567669,1.347901 0.376251,0.324763 0.881878,0.487145 1.520182,0.487145 v -3.701109 c -0.638304,0 -1.143931,0.16173 -1.520182,0.486486 -0.37427,0.324098 -0.557109,0.781541 -0.557109,1.369678 z m 6.335506,-0.04094 c 0,0.862071 -0.291759,1.541301 -0.881876,2.047589 -0.586815,0.50695 -1.347237,0.760422 -2.29116,0.770321 V 44.8414 h -1.074619 v -0.902999 c -0.931381,-0.0098 -1.691142,-0.273278 -2.280601,-0.779562 -0.586815,-0.506947 -0.881873,-1.186837 -0.881873,-2.038348 0,-0.85217 0.295058,-1.520839 0.881873,-2.017223 0.589459,-0.496385 1.34922,-0.750521 2.290504,-0.760419 v -0.842271 h 1.075279 v 0.842271 c 0.943264,0.0098 1.703682,0.264034 2.291161,0.760419 0.588795,0.496384 0.883196,1.165053 0.883196,2.017223 z" />
    <path
       inkscape:connector-curvature="0"
       id="path4672-4"
       style="fill:#ffffff;fill-opacity:1;fill-rule:nonzero;stroke:none;stroke-width:0.66008657"
       d="m 104.75689,38.711786 v 2.200067 h 0.69045 c 0.37625,0 0.66935,-0.101013 0.87198,-0.304301 0.20331,-0.203304 0.30429,-0.466678 0.30429,-0.801344 0,-0.334002 -0.10101,-0.598038 -0.30429,-0.800684 -0.20263,-0.201986 -0.49573,-0.303638 -0.87198,-0.303638 z m 0.71025,-0.963067 c 0.68122,0 1.22843,0.192746 1.64428,0.567675 0.41386,0.37559 0.62708,0.871973 0.62708,1.480575 0,0.607279 -0.21322,1.104323 -0.62708,1.490474 -0.41585,0.384834 -0.96306,0.576919 -1.64428,0.576919 h -0.71025 v 2.585554 h -1.07463 v -6.691297 h 1.78488 z" />
    <path
       inkscape:connector-curvature="0"
       id="path4676-4"
       style="fill:#ffffff;fill-opacity:1;fill-rule:nonzero;stroke:none;stroke-width:0.66008657"
       d="m 112.00554,39.701257 -1.11423,2.777644 h 2.21923 z m 1.50103,3.699787 h -3.0113 l -0.47595,1.116206 h -1.14655 l 2.94991,-6.803513 h 0.36636 l 2.94925,6.803513 h -1.15647 z" />
    <path
       inkscape:connector-curvature="0"
       id="path4680-5"
       style="fill:#ffffff;fill-opacity:1;fill-rule:nonzero;stroke:none;stroke-width:0.66008657"
       d="m 126.12654,41.375369 v 2.311622 h 0.65083 c 0.39407,0 0.69903,-0.111553 0.91157,-0.324103 0.21254,-0.213207 0.32412,-0.496383 0.32412,-0.84227 0,-0.343906 -0.1117,-0.627741 -0.32412,-0.84095 -0.21254,-0.212545 -0.5175,-0.324102 -0.91157,-0.324102 z m 0,-0.97363 h 0.65083 c 0.69903,0 1.26538,0.193406 1.6918,0.5888 0.42573,0.39473 0.63896,0.902338 0.63896,1.520177 0,0.629066 -0.21323,1.135349 -0.63896,1.520841 -0.42642,0.384827 -0.99277,0.578236 -1.6918,0.578236 h -1.72548 v -6.691298 h 1.07465 z" />
    <path
       inkscape:connector-curvature="0"
       id="path4682-4"
       style="fill:#ffffff;fill-opacity:1;fill-rule:nonzero;stroke:none;stroke-width:0.66008657"
       d="m 146.71053,44.52662 h -1.07464 v -6.691953 h 1.07464 z m -4.95794,-3.244323 v 2.31228 h 0.72611 c 0.39342,0 0.69838,-0.111552 0.91159,-0.324096 0.21254,-0.213213 0.32409,-0.497047 0.32409,-0.842276 0,-0.34456 -0.11171,-0.627735 -0.32409,-0.840947 -0.21321,-0.21321 -0.51817,-0.324103 -0.91159,-0.324103 z m 0,-0.972968 h 0.72611 c 0.69838,0 1.26541,0.192746 1.69115,0.588137 0.42642,0.394733 0.63896,0.903004 0.63896,1.520839 0,0.629064 -0.21254,1.135351 -0.63896,1.520181 -0.42574,0.385491 -0.99277,0.578895 -1.69115,0.578895 h -1.80138 v -6.691957 h 1.07527 z" />
    <path
       inkscape:connector-curvature="0"
       id="path4686-4"
       style="fill:#ffffff;fill-opacity:1;fill-rule:nonzero;stroke:none;stroke-width:0.66008657"
       d="m 152.64281,37.064805 c -0.47855,0 -0.87397,-0.151826 -1.17629,-0.465361 -0.30496,-0.314862 -0.45878,-0.710913 -0.45878,-1.186177 h 0.86208 c 0,0.252152 0.0719,0.455463 0.21322,0.607939 0.14391,0.151828 0.33402,0.223111 0.56963,0.223111 0.23238,0 0.42577,-0.07128 0.56704,-0.223111 0.14115,-0.152474 0.21322,-0.355787 0.21322,-0.607939 h 0.86208 c 0,0.475264 -0.15394,0.871315 -0.45614,1.186177 -0.30431,0.313541 -0.70102,0.465361 -1.17628,0.465361 z m 2.92019,0.648864 v 6.803512 h -1.07529 v -4.602784 l -4.16843,4.713681 h -0.37359 v -6.802854 h 1.07526 v 4.592881 l 4.17506,-4.704436 z" />
    <path
       inkscape:connector-curvature="0"
       id="path4690-6"
       style="fill:#ffffff;fill-opacity:1;fill-rule:nonzero;stroke:none;stroke-width:0.66008657"
       d="m 75.465525,53.041278 -2.320864,5.384327 c -0.405954,0.941938 -1.116209,1.418526 -2.119537,1.418526 -0.272616,0 -0.557117,-0.02973 -0.852173,-0.101014 v -0.932704 c 0.406615,0.03104 0.619159,0.05083 0.63896,0.05083 0.619827,0 1.045579,-0.253473 1.278592,-0.760419 l -2.373014,-5.059563 h 1.235681 l 1.714249,3.863487 1.572984,-3.863487 z" />
    <path
       inkscape:connector-curvature="0"
       id="path4694-9"
       style="fill:#ffffff;fill-opacity:1;fill-rule:nonzero;stroke:none;stroke-width:0.66008657"
       d="m 84.277433,59.733038 h -1.075281 v -3.062146 h -3.365784 v 3.062146 h -1.073959 v -6.691961 h 1.073959 v 2.667408 h 3.365784 v -2.667408 h 1.075281 z" />
    <path
       inkscape:connector-curvature="0"
       id="path4698-4"
       style="fill:#ffffff;fill-opacity:1;fill-rule:nonzero;stroke:none;stroke-width:0.66008657"
       d="m 94.008526,52.92979 v 6.80351 h -1.074621 v -4.60344 l -4.167784,4.714334 h -0.37427 v -6.802851 h 1.07462 v 4.592881 L 93.64218,52.92979 Z" />
    <path
       inkscape:connector-curvature="0"
       id="path4702-6"
       style="fill:#ffffff;fill-opacity:1;fill-rule:nonzero;stroke:none;stroke-width:0.66008657"
       d="m 99.999608,58.724561 c 0.376252,0 0.671302,-0.09175 0.871972,-0.273938 0.2033,-0.182844 0.30431,-0.436975 0.30431,-0.749856 0,-0.314863 -0.10108,-0.568998 -0.30431,-0.760421 -0.20067,-0.193407 -0.48517,-0.285157 -0.86141,-0.285157 h -0.893106 v 2.079273 h 0.893106 z m -0.882544,-4.79619 v 1.804674 h 0.357772 c 0.334658,0 0.586814,-0.08052 0.770324,-0.242913 0.18087,-0.162373 0.27196,-0.384829 0.27196,-0.658763 0,-0.273274 -0.0911,-0.49771 -0.27196,-0.660092 -0.18351,-0.162372 -0.435666,-0.242906 -0.770324,-0.242906 z m 1.898426,2.099075 c 0.39341,0.13135 0.7076,0.344563 0.93071,0.637642 0.2231,0.295062 0.33466,0.648865 0.33466,1.065382 0,0.56767 -0.20067,1.033695 -0.59672,1.398721 -0.39668,0.365689 -0.92411,0.547874 -1.57299,0.547874 h -2.038988 v -6.69196 h 1.514223 c 0.596725,0 1.084525,0.162372 1.448225,0.497707 0.36439,0.333999 0.54723,0.760421 0.54723,1.286505 0,0.517509 -0.19276,0.933367 -0.56635,1.246904 z" />
    <path
       inkscape:connector-curvature="0"
       id="path4706-8"
       style="fill:#ffffff;fill-opacity:1;fill-rule:nonzero;stroke:none;stroke-width:0.66008657"
       d="m 114.38164,53.831932 v 2.200069 h 0.71622 c 0.37624,0 0.66867,-0.101013 0.8713,-0.304302 0.2033,-0.20331 0.30496,-0.466681 0.30496,-0.800684 0,-0.334665 -0.1017,-0.598703 -0.30496,-0.801347 -0.20263,-0.201986 -0.49506,-0.303636 -0.8713,-0.303636 z m 0.736,-0.96307 c 0.68055,0 1.22844,0.192748 1.64427,0.568335 0.4139,0.374934 0.62709,0.871315 0.62709,1.479918 0,0.607274 -0.21319,1.104321 -0.62709,1.49047 -0.41583,0.385492 -0.96372,0.576919 -1.64427,0.576919 h -0.736 v 2.585557 h -1.07526 v -6.691298 h 1.81126 z" />
    <path
       inkscape:connector-curvature="0"
       id="path4710-5"
       style="fill:#ffffff;fill-opacity:1;fill-rule:nonzero;stroke:none;stroke-width:0.66008657"
       d="m 123.15549,52.899756 c 0.6185,0 1.17626,0.141242 1.68388,0.41453 0.50759,0.2746 0.90167,0.648868 1.19607,1.125445 l -0.81189,0.598705 c -0.49508,-0.770322 -1.17431,-1.155813 -2.03573,-1.155813 -0.69111,0 -1.26801,0.233009 -1.72414,0.699691 -0.45544,0.465357 -0.69045,1.054159 -0.69045,1.763751 0,0.710256 0.23501,1.297728 0.69045,1.764411 0.45613,0.466683 1.03303,0.699691 1.72414,0.699691 0.86142,0 1.54065,-0.385488 2.03573,-1.15515 l 0.81189,0.598037 c -0.28449,0.476584 -0.67857,0.851512 -1.18618,1.12545 -0.50759,0.273274 -1.06471,0.414535 -1.68389,0.414535 -0.98351,0 -1.81258,-0.334006 -2.49445,-0.993432 -0.67791,-0.658105 -1.01256,-1.480577 -1.01256,-2.463444 0,-0.973627 0.34455,-1.794773 1.02314,-2.463445 0.68053,-0.669983 1.5109,-1.003991 2.49642,-1.003991 z" />
    <path
       inkscape:connector-curvature="0"
       id="path4714-8"
       style="fill:#ffffff;fill-opacity:1;fill-rule:nonzero;stroke:none;stroke-width:0.66008657"
       d="m 134.68446,52.92979 v 6.80351 h -1.07462 v -4.60344 l -4.1678,4.714334 h -0.37425 v -6.802851 h 1.0746 v 4.592881 l 4.17573,-4.704434 z" />
    <path
       inkscape:connector-curvature="0"
       id="path4718-7"
       style="fill:#ffffff;fill-opacity:1;fill-rule:nonzero;stroke:none;stroke-width:0.66008657"
       d="m 141.69334,54.004674 h -1.45746 v 5.728229 h -1.07465 v -5.728229 h -1.44426 v -0.963068 h 3.97637 z" />
    <path
       inkscape:connector-curvature="0"
       id="path4722-6"
       style="fill:#ffffff;fill-opacity:1;fill-rule:nonzero;stroke:none;stroke-width:0.66008657"
       d="m 155.56289,54.004674 h -1.45746 v 5.728229 h -1.07465 v -5.728229 h -1.44689 v -0.963068 h 3.979 z" />
    <path
       inkscape:connector-curvature="0"
       id="path4726-0"
       style="fill:#ffffff;fill-opacity:1;fill-rule:nonzero;stroke:none;stroke-width:0.66008657"
       d="m 83.674046,43.457481 h -2.406013 v -2.118222 h 2.406013 v -0.9327 h -2.406013 v -1.714245 h 2.406013 v -0.963066 h -3.479974 v 6.691294 h 3.479974 z" />
    <path
       inkscape:connector-curvature="0"
       id="path4730-9"
       style="fill:#ffffff;fill-opacity:1;fill-rule:nonzero;stroke:none;stroke-width:0.66008657"
       d="m 100.17619,43.553523 h -2.593476 v -2.11888 h 2.504376 V 40.5026 h -2.504376 v -1.713583 h 2.593476 v -0.963729 h -3.668095 v 6.6913 h 3.668095 z" />
    <path
       inkscape:connector-curvature="0"
       id="path4734-5"
       style="fill:#ffffff;fill-opacity:1;fill-rule:nonzero;stroke:none;stroke-width:0.66008657"
       d="m 109.3407,58.7136 h -2.55587 v -2.11888 h 2.50439 v -0.932703 h -2.50439 V 53.94843 h 2.55587 v -0.963063 h -3.63048 v 6.691296 h 3.63048 z" />
    <path
       inkscape:connector-curvature="0"
       id="path4738-6"
       style="fill:#ffffff;fill-opacity:1;fill-rule:nonzero;stroke:none;stroke-width:0.66008657"
       d="m 148.66683,58.769639 h -2.49841 v -2.118878 h 2.49841 v -0.9327 h -2.49841 v -1.713589 h 2.49841 v -0.963063 h -3.57304 v 6.691296 h 3.57304 z" />
    <path
       inkscape:connector-curvature="0"
       id="path4742-1"
       style="fill:#ffffff;fill-opacity:1;fill-rule:nonzero;stroke:none;stroke-width:0.66008657"
       d="m 135.53341,29.301068 h -1.32812 l -3.10307,-3.559183 2.80868,-3.132775 h 1.31753 l -2.77895,3.132775 z m -5.76587,-6.691958 h 1.07462 v 6.691958 h -1.07462 z" />
    <path
       inkscape:connector-curvature="0"
       id="path4744-0"
       style="fill:#ffffff;fill-opacity:1;fill-rule:nonzero;stroke:none;stroke-width:0.66008657"
       d="m 131.67177,26.205263 h -1.53735 v -0.888478 h 1.53735 z" />
    <path
       inkscape:connector-curvature="0"
       id="path4748-2"
       style="fill:#ffffff;fill-opacity:1;fill-rule:nonzero;stroke:none;stroke-width:0.66008657"
       d="m 137.4421,44.609991 h -1.07461 v -3.062143 h -3.36577 v 3.062143 h -1.07462 v -6.691958 h 1.07462 v 2.66741 h 3.36577 v -2.66741 h 1.07461 z" />
    <path
       inkscape:connector-curvature="0"
       id="path4752-8"
       style="fill:#ffffff;fill-opacity:1;fill-rule:nonzero;stroke:none;stroke-width:0.66008657"
       d="m 88.226961,43.457481 h 3.037057 v -4.773749 h -1.808637 c -0.0198,2.265418 -0.425757,3.859528 -1.22842,4.773749 m 4.956591,0 v 2.396772 h -1.076604 v -1.43173 h -4.520273 v 1.43173 h -1.076602 v -2.396772 h 0.518169 c 0.456781,-0.396053 0.80267,-0.964388 1.046241,-1.705669 0.244228,-0.741935 0.365683,-1.76837 0.365683,-3.06808 v -0.954484 h 3.910356 v 5.738791 z" />
    <path
       inkscape:connector-curvature="0"
       id="path4756-9"
       style="fill:#ffffff;fill-opacity:1;fill-rule:nonzero;stroke:none;stroke-width:0.66008657"
       d="m 121.95848,37.903444 v 6.658951 h -1.07134 v -5.699184 h -1.96046 c -0.0106,1.040956 -0.0812,1.930092 -0.21253,2.668067 -0.13066,0.737318 -0.32278,1.312917 -0.5756,1.738009 -0.25215,0.424436 -0.536,0.737317 -0.84888,0.939963 -0.31354,0.201331 -0.68714,0.333342 -1.11158,0.38417 v -1.000686 c 0.57624,-0.121471 1.00069,-0.545896 1.27331,-1.273973 0.27328,-0.727414 0.41452,-1.838999 0.41452,-3.343997 v -1.091782 z" />
    <path
       inkscape:connector-curvature="0"
       id="path5091"
       d="m 25.924131,71.388555 c -2.824265,-0.855732 -5.028807,-3.9078 -5.028807,-6.962107 0,-1.766996 -0.101165,-1.873579 -4.120719,-4.341214 C 13.465491,58.05374 12.509475,57.661608 11.920682,58.094281 8.6587565,60.491288 5.0974721,60.432367 2.6052602,57.940153 -0.99901682,54.335877 0.05486863,48.389316 4.63724,46.474677 l 1.5779283,-0.6593 V 41.12168 36.427981 L 4.2267736,35.327005 c -5.4835454,-3.036249 -4.93329597,-10.603273 0.9215458,-12.673014 5.0442146,-1.783176 10.2624756,3.277697 8.7128116,8.450021 -0.569619,1.901219 -3.330357,4.779453 -4.5843436,4.779453 -0.5673814,0 -0.6938531,0.949472 -0.6938531,5.209088 0,4.259618 0.1264648,5.209087 0.6938531,5.209087 1.1708566,0 3.9526476,2.794102 4.5332336,4.553294 0.30216,0.915547 0.4239,2.343315 0.270538,3.172815 -0.271147,1.466568 -0.167292,1.576982 3.763786,4.001452 l 4.042628,2.493267 1.516778,-1.120966 c 0.834227,-0.616531 1.8897,-1.252339 2.345497,-1.412911 0.718639,-0.253165 0.825783,-0.93866 0.806615,-5.160728 l -0.02209,-4.868785 -1.936212,-0.950694 c -4.974906,-2.442713 -4.904893,-9.361078 0.121234,-11.980448 2.447893,-1.275717 4.955071,-1.12275 7.143943,0.435866 4.158841,2.961356 3.55459,9.781713 -1.037458,11.710047 l -1.869911,0.785229 -0.0048,4.814921 -0.0048,4.814922 1.769575,0.867719 c 3.512041,1.722145 4.875186,5.800368 3.15232,9.431038 -1.284969,2.707875 -5.063953,4.373358 -7.943497,3.500877 z"
       style="fill:#ffffff;stroke-width:0.47355339" />
    <path
       inkscape:connector-curvature="0"
       id="path5093"
       d="M 46.121827,59.127614 C 40.908525,56.70145 40.837527,49.021462 46.008322,46.850093 l 1.86991,-0.78523 0.0048,-4.995569 0.0048,-4.995565 -1.675271,-0.605786 c -1.03274,-0.373428 -2.145247,-1.315902 -2.900484,-2.457139 -1.031945,-1.559376 -1.192384,-2.246677 -1.017299,-4.357974 l 0.207951,-2.506621 -4.197315,-2.537667 -4.197312,-2.537668 -1.278915,1.192239 c -1.833368,1.709121 -3.092996,2.255071 -5.202953,2.255071 -4.990168,0 -8.384016,-6.043624 -5.78636,-10.304115 3.369063,-5.525705 11.948778,-3.921294 12.657558,2.36697 0.229197,2.033426 0.304641,2.110595 4.720962,4.828846 l 4.488043,2.762396 2.024197,-1.010932 c 2.568283,-1.282663 3.815121,-1.272037 6.402224,0.05457 5.009266,2.568623 5.069236,9.515273 0.103195,11.953636 l -1.936213,0.950693 -0.02209,4.995569 -0.02209,4.995568 1.643404,0.594262 c 4.77107,1.725243 5.353487,9.193769 0.930145,11.927545 -2.316174,1.431476 -4.368735,1.582776 -6.707358,0.494428 z"
       style="fill:#ffffff;stroke-width:0.47355339" />
    <path
       inkscape:connector-curvature="0"
       id="path5095"
       d="M 5.9653313,59.959121 C 2.5804879,59.317074 0.12768969,56.392169 0.12768969,52.997874 c 0,-0.479483 0.0596822,-1.162147 0.13261239,-1.517034 0.36846186,-1.792834 1.50253862,-3.4619 3.05813752,-4.500786 0.616124,-0.411472 1.6899204,-0.897921 1.894322,-0.858163 0.072847,0.01417 -0.090298,0.115158 -0.3625531,0.224397 -2.1525339,0.863772 -3.6418753,2.533611 -4.22803055,4.740444 -0.24902145,0.937548 -0.24942289,2.491848 -8.8282e-4,3.432241 0.60960137,2.306533 2.29534447,4.231757 4.36755637,4.988019 2.0332289,0.742037 4.3091292,0.355787 6.5468145,-1.111084 0.357956,-0.234651 0.667664,-0.409802 0.688243,-0.389225 0.08189,0.08189 -1.211704,1.012725 -1.841351,1.325003 -1.3028466,0.646155 -3.0272316,0.891093 -4.4172267,0.627435 z"
       style="fill:#ffffff;stroke-width:0.08371322" />
    <path
       inkscape:connector-curvature="0"
       id="path5097"
       d="m 6.1941602,41.12486 c -1.17e-5,-2.578366 0.010612,-3.645245 0.023601,-2.370842 0.01295,1.274406 0.01295,3.383976 2.13e-5,4.687942 -0.01295,1.303962 -0.023599,0.261268 -0.023609,-2.3171 z"
       style="fill:#ffffff;stroke-width:0.08371322" />
    <path
       inkscape:connector-curvature="0"
       id="path5099"
       d="m 5.9039001,41.085631 c 0,-4.20474 0.014801,-4.763324 0.1255703,-4.720839 0.109557,0.04204 0.1255704,0.649948 0.1255704,4.769025 0,4.140493 -0.015445,4.72084 -0.1255704,4.72084 -0.1101436,0 -0.1255703,-0.5857 -0.1255703,-4.769026 z"
       style="fill:#ffffff;stroke-width:0.08371322" />
    <path
       inkscape:connector-curvature="0"
       id="path5101"
       d="m 48.005629,60.015864 c -2.324383,-0.364917 -4.33887,-1.821417 -5.349126,-3.867479 -0.56662,-1.147572 -0.745834,-1.91535 -0.747747,-3.203462 -0.0015,-0.967738 0.06475,-1.413806 0.332385,-2.240074 0.729007,-2.250663 2.665531,-4.086408 4.927612,-4.671179 l 0.510115,-0.131872 v -4.826505 -4.826507 l -0.427004,-0.109994 c -2.309321,-0.594892 -4.23825,-2.379321 -4.988754,-4.61503 -0.290506,-0.865404 -0.34794,-1.246802 -0.348717,-2.315699 -6.49e-4,-0.890914 0.0171,-1.07757 0.154868,-1.62784 0.08558,-0.341847 0.196343,-0.71477 0.246144,-0.828719 l 0.09054,-0.207179 0.0011,0.236777 c 6.07e-4,0.130223 -0.03795,0.689613 -0.08569,1.243077 -0.125754,1.458084 -0.116216,2.506306 0.02798,3.070085 0.301745,1.179808 1.450757,2.831041 2.537406,3.646484 0.563754,0.423049 0.964679,0.622343 2.0145,1.001385 l 0.925607,0.334192 v 4.990239 4.990239 l -1.154285,0.489876 c -1.23038,0.522169 -1.590853,0.716743 -2.170687,1.17167 -1.000672,0.78511 -1.76014,1.975887 -2.125353,3.332365 -0.213183,0.791802 -0.267787,2.205983 -0.116572,3.018901 0.479945,2.580058 2.109087,4.484637 4.602206,5.380296 0.885225,0.31802 1.47992,0.410491 2.412768,0.375166 1.161174,-0.04397 2.045136,-0.306864 3.169067,-0.942492 1.520143,-0.859704 2.48052,-2.00699 3.013074,-3.599488 0.856813,-2.562138 0.263919,-5.496272 -1.463923,-7.244718 -0.74149,-0.75033 -1.343438,-1.096748 -2.836623,-1.632453 l -0.873115,-0.313245 v -2.942377 c 0,-1.618308 0.01756,-3.861476 0.039,-4.984819 l 0.03899,-2.042438 1.218873,-0.607744 c 1.29947,-0.64793 1.744159,-0.931015 2.344133,-1.492263 1.315352,-1.230446 2.006815,-2.871377 2.004017,-4.755782 -0.002,-1.384514 -0.383896,-2.627036 -1.164199,-3.788429 C 54.39509,24.929365 53.511322,24.05903 52.91969,23.6623 52.027373,23.063939 50.701006,22.476731 49.809858,22.285518 l -0.384762,-0.08256 0.5068,-0.0046 c 1.597005,-0.01479 3.631847,1.152275 4.846189,2.77958 2.102082,2.816937 1.795446,6.796633 -0.716488,9.299049 -0.85895,0.855691 -1.931948,1.483761 -3.091807,1.809763 l -0.567991,0.159644 v 4.842064 c 0,4.247297 0.01079,4.842059 0.08808,4.842059 0.195177,0 1.274616,0.385112 1.746937,0.623257 3.219616,1.623322 4.73436,5.406536 3.518837,8.788619 -0.352321,0.980306 -0.832775,1.747227 -1.58073,2.523243 -1.006485,1.04424 -2.041844,1.645359 -3.472119,2.015882 -0.449171,0.116355 -0.752375,0.151473 -1.455294,0.168503 -0.488353,0.01185 -1.047201,-0.0034 -1.241884,-0.03406 z"
       style="fill:#ffffff;stroke-width:0.05919417" />
    <path
       inkscape:connector-curvature="0"
       id="path5115"
       d="m 70.311779,59.715926 c -0.03649,-0.04513 -0.07738,-0.26295 -0.0909,-0.48404 l -0.02456,-0.401978 0.393663,0.03879 c 0.518225,0.05107 0.96552,-0.07456 1.21906,-0.342326 0.362537,-0.382913 0.415128,-0.202297 -0.841337,-2.88941 -0.631433,-1.350394 -1.148548,-2.476206 -1.149143,-2.501801 -5.97e-4,-0.0256 0.2559,-0.03892 0.569994,-0.02961 l 0.571078,0.01693 0.824527,1.864618 c 0.453491,1.02554 0.842461,1.883141 0.864381,1.90578 0.02192,0.02262 0.388047,-0.816437 0.813618,-1.864616 l 0.773763,-1.905782 0.572904,-0.01693 c 0.315097,-0.0093 0.572903,8.4e-4 0.572903,0.02257 0,0.0823 -2.037795,4.752658 -2.312945,5.300955 -0.316764,0.63123 -0.584447,0.933084 -1.026674,1.157744 -0.244163,0.12404 -0.401846,0.152998 -0.977559,0.17952 -0.542857,0.02501 -0.70032,0.01449 -0.752785,-0.05044 z"
       style="fill:#ffffff;stroke-width:0.05919417" />
    <path
       inkscape:connector-curvature="0"
       id="path5117"
       d="m 78.815005,56.407782 v -3.314874 h 0.50315 0.503153 v 1.332776 1.332778 l 1.70183,-0.01571 1.701834,-0.01571 0.01593,-1.317068 0.01593,-1.31707 h 0.50202 0.502017 v 3.314872 3.314875 h -0.503156 -0.503151 v -1.539043 -1.53905 h -1.712879 -1.712879 l -0.01855,1.482089 c -0.01551,1.238964 -0.03311,1.491282 -0.107335,1.53814 -0.04883,0.03083 -0.268593,0.05647 -0.488351,0.05696 l -0.399563,9.07e-4 z"
       style="fill:#ffffff;stroke-width:0.05919417" />
    <path
       inkscape:connector-curvature="0"
       id="path5119"
       d="m 88.481814,59.766834 c -0.02626,-0.04057 -0.05528,-1.558808 -0.06446,-3.373849 l -0.0167,-3.300077 h 0.505046 0.505048 v 2.245885 c 0,1.235238 0.02008,2.258297 0.04461,2.273466 0.02455,0.0151 0.896916,-0.9319 1.938607,-2.104597 1.942028,-2.18626 2.279852,-2.533142 2.466986,-2.533142 0.102919,0 0.107747,0.150703 0.107747,3.374068 v 3.374068 H 93.46556 92.962407 l -0.0016,-2.32337 -0.0016,-2.323373 -0.220499,0.238417 c -0.121271,0.131132 -1.039631,1.162662 -2.040794,2.292293 -1.755057,1.980264 -2.109321,2.325556 -2.216347,2.160211 z"
       style="fill:#ffffff;stroke-width:0.05919417" />
  </g>
</svg>
